<svg xmlns="http://www.w3.org/2000/svg" width="640" height="400" viewBox="0 0 320 200" role="img" aria-labelledby="title desc">
  <title id="title">AP63205WU-7 footprint preview</title>
  <desc id="desc">TSOT26 top-view preview with six pads and manufacturer dimension labels.</desc>
  <rect width="320" height="200" fill="#0b1117"/>
  <g fill="none" stroke="#647b89" stroke-width="1">
    <rect x="120" y="52" width="80" height="96" stroke-dasharray="4 3"/>
    <path d="M85 45v110M235 45v110M80 45h10M80 155h10M230 45h10M230 155h10"/>
  </g>
  <g fill="#ff5a2f" stroke="#ff8b69" stroke-width="1">
    <rect x="86" y="48" width="35" height="22"/>
    <rect x="86" y="89" width="35" height="22"/>
    <rect x="86" y="130" width="35" height="22"/>
    <rect x="199" y="130" width="35" height="22"/>
    <rect x="199" y="89" width="35" height="22"/>
    <rect x="199" y="48" width="35" height="22"/>
  </g>
  <g fill="#dce5ea" font-family="ui-monospace, SFMono-Regular, Menlo, monospace" font-size="9">
    <text x="103" y="62" text-anchor="middle">1</text>
    <text x="103" y="103" text-anchor="middle">2</text>
    <text x="103" y="144" text-anchor="middle">3</text>
    <text x="216" y="144" text-anchor="middle">4</text>
    <text x="216" y="103" text-anchor="middle">5</text>
    <text x="216" y="62" text-anchor="middle">6</text>
    <text x="160" y="31" text-anchor="middle">TSOT26 / e = 0.95 mm</text>
    <text x="160" y="178" text-anchor="middle">X 0.70 / Y 1.00 / Y1 3.20 mm</text>
    <text x="12" y="18" fill="#8da3b2">DIMENSION PREVIEW / NOT CAD</text>
  </g>
</svg>
