<?xml version="1.0" standalone="no"?>
 <!DOCTYPE svg PUBLIC "-//W3C//DTD SVG 1.1//EN"
 "http://www.w3.org/Graphics/SVG/1.1/DTD/svg11.dtd">
<svg
  xmlns:svg="http://www.w3.org/2000/svg"
  xmlns="http://www.w3.org/2000/svg"
  xmlns:xlink="http://www.w3.org/1999/xlink"
  xmlns:inkscape="http://www.inkscape.org/namespaces/inkscape"
  version="1.1"
  width="6.045200mm" height="5.664200mm" viewBox="0.000000 0.000000 6.045200 5.664200">
<title>SVG Image created as PTS815SJM250SMTRLFS.svg date 2026-07-16T09:55:21 </title>
  <desc>Image generated by PCBNEW </desc>
<g style="fill:#000000; fill-opacity:1.000000;stroke:#000000; stroke-opacity:1.000000;
stroke-linecap:round; stroke-linejoin:round;"
 transform="translate(0 0) scale(1 1)">
<path style="fill:#C83434; fill-opacity:1.000000; stroke:none;fill-rule:evenodd;"
d="M 0.275000,2.363250
0.285657,2.309674
0.316005,2.264255
0.361424,2.233907
0.415000,2.223250
1.135000,2.223250
1.188576,2.233907
1.233995,2.264255
1.264343,2.309674
1.275000,2.363250
1.275000,2.783250
1.264343,2.836826
1.233995,2.882245
1.188576,2.912593
1.135000,2.923250
0.415000,2.923250
0.361424,2.912593
0.316005,2.882245
0.285657,2.836826
0.275000,2.783250
Z" />
<path style="fill:#C83434; fill-opacity:1.000000; stroke:none;fill-rule:evenodd;"
d="M 4.775000,2.363250
4.785657,2.309674
4.816005,2.264255
4.861424,2.233907
4.915000,2.223250
5.635000,2.223250
5.688576,2.233907
5.733995,2.264255
5.764343,2.309674
5.775000,2.363250
5.775000,2.783250
5.764343,2.836826
5.733995,2.882245
5.688576,2.912593
5.635000,2.923250
4.915000,2.923250
4.861424,2.912593
4.816005,2.882245
4.785657,2.836826
4.775000,2.783250
Z" />
<path style="fill:#C83434; fill-opacity:1.000000; stroke:none;fill-rule:evenodd;"
d="M 0.275000,4.513250
0.285657,4.459674
0.316005,4.414255
0.361424,4.383907
0.415000,4.373250
1.135000,4.373250
1.188576,4.383907
1.233995,4.414255
1.264343,4.459674
1.275000,4.513250
1.275000,4.933250
1.264343,4.986826
1.233995,5.032245
1.188576,5.062593
1.135000,5.073250
0.415000,5.073250
0.361424,5.062593
0.316005,5.032245
0.285657,4.986826
0.275000,4.933250
Z" />
<path style="fill:#C83434; fill-opacity:1.000000; stroke:none;fill-rule:evenodd;"
d="M 4.775000,4.513250
4.785657,4.459674
4.816005,4.414255
4.861424,4.383907
4.915000,4.373250
5.635000,4.373250
5.688576,4.383907
5.733995,4.414255
5.764343,4.459674
5.775000,4.513250
5.775000,4.933250
5.764343,4.986826
5.733995,5.032245
5.688576,5.062593
5.635000,5.073250
4.915000,5.073250
4.861424,5.062593
4.816005,5.032245
4.785657,4.986826
4.775000,4.933250
Z" />
<path style="fill:#B4A09A; fill-opacity:0.900000; stroke:none;fill-rule:evenodd;"
d="M 0.275000,2.363250
0.285657,2.309674
0.316005,2.264255
0.361424,2.233907
0.415000,2.223250
1.135000,2.223250
1.188576,2.233907
1.233995,2.264255
1.264343,2.309674
1.275000,2.363250
1.275000,2.783250
1.264343,2.836826
1.233995,2.882245
1.188576,2.912593
1.135000,2.923250
0.415000,2.923250
0.361424,2.912593
0.316005,2.882245
0.285657,2.836826
0.275000,2.783250
Z" />
<path style="fill:#B4A09A; fill-opacity:0.900000; stroke:none;fill-rule:evenodd;"
d="M 4.775000,2.363250
4.785657,2.309674
4.816005,2.264255
4.861424,2.233907
4.915000,2.223250
5.635000,2.223250
5.688576,2.233907
5.733995,2.264255
5.764343,2.309674
5.775000,2.363250
5.775000,2.783250
5.764343,2.836826
5.733995,2.882245
5.688576,2.912593
5.635000,2.923250
4.915000,2.923250
4.861424,2.912593
4.816005,2.882245
4.785657,2.836826
4.775000,2.783250
Z" />
<path style="fill:#B4A09A; fill-opacity:0.900000; stroke:none;fill-rule:evenodd;"
d="M 0.275000,4.513250
0.285657,4.459674
0.316005,4.414255
0.361424,4.383907
0.415000,4.373250
1.135000,4.373250
1.188576,4.383907
1.233995,4.414255
1.264343,4.459674
1.275000,4.513250
1.275000,4.933250
1.264343,4.986826
1.233995,5.032245
1.188576,5.062593
1.135000,5.073250
0.415000,5.073250
0.361424,5.062593
0.316005,5.032245
0.285657,4.986826
0.275000,4.933250
Z" />
<path style="fill:#B4A09A; fill-opacity:0.900000; stroke:none;fill-rule:evenodd;"
d="M 4.775000,4.513250
4.785657,4.459674
4.816005,4.414255
4.861424,4.383907
4.915000,4.373250
5.635000,4.373250
5.688576,4.383907
5.733995,4.414255
5.764343,4.459674
5.775000,4.513250
5.775000,4.933250
5.764343,4.986826
5.733995,5.032245
5.688576,5.062593
5.635000,5.073250
4.915000,5.073250
4.861424,5.062593
4.816005,5.032245
4.785657,4.986826
4.775000,4.933250
Z" />
<path style="fill:#D864FF; fill-opacity:0.400000; stroke:none;fill-rule:evenodd;"
d="M 0.225000,2.363250
0.239463,2.290540
0.280650,2.228900
0.342290,2.187713
0.415000,2.173250
1.135000,2.173250
1.207710,2.187713
1.269350,2.228900
1.310537,2.290540
1.325000,2.363250
1.325000,2.783250
1.310537,2.855960
1.269350,2.917600
1.207710,2.958787
1.135000,2.973250
0.415000,2.973250
0.342290,2.958787
0.280650,2.917600
0.239463,2.855960
0.225000,2.783250
Z" />
<path style="fill:#D864FF; fill-opacity:0.400000; stroke:none;fill-rule:evenodd;"
d="M 4.725000,2.363250
4.739463,2.290540
4.780650,2.228900
4.842290,2.187713
4.915000,2.173250
5.635000,2.173250
5.707710,2.187713
5.769350,2.228900
5.810537,2.290540
5.825000,2.363250
5.825000,2.783250
5.810537,2.855960
5.769350,2.917600
5.707710,2.958787
5.635000,2.973250
4.915000,2.973250
4.842290,2.958787
4.780650,2.917600
4.739463,2.855960
4.725000,2.783250
Z" />
<path style="fill:#D864FF; fill-opacity:0.400000; stroke:none;fill-rule:evenodd;"
d="M 0.225000,4.513250
0.239463,4.440540
0.280650,4.378900
0.342290,4.337713
0.415000,4.323250
1.135000,4.323250
1.207710,4.337713
1.269350,4.378900
1.310537,4.440540
1.325000,4.513250
1.325000,4.933250
1.310537,5.005960
1.269350,5.067600
1.207710,5.108787
1.135000,5.123250
0.415000,5.123250
0.342290,5.108787
0.280650,5.067600
0.239463,5.005960
0.225000,4.933250
Z" />
<path style="fill:#D864FF; fill-opacity:0.400000; stroke:none;fill-rule:evenodd;"
d="M 4.725000,4.513250
4.739463,4.440540
4.780650,4.378900
4.842290,4.337713
4.915000,4.323250
5.635000,4.323250
5.707710,4.337713
5.769350,4.378900
5.810537,4.440540
5.825000,4.513250
5.825000,4.933250
5.810537,5.005960
5.769350,5.067600
5.707710,5.108787
5.635000,5.123250
4.915000,5.123250
4.842290,5.108787
4.780650,5.067600
4.739463,5.005960
4.725000,4.933250
Z" />
</g>
<g style="fill:none;
stroke:#F2EDA1; stroke-width:0.150000; stroke-opacity:1;
stroke-linecap:round; stroke-linejoin:round;">
<text x="3.025000" y="1.348250"
textLength="3.869048" font-size="1.333333" lengthAdjust="spacingAndGlyphs"
text-anchor="middle" opacity="0" stroke-opacity="0">SW**</text>
<g class="stroked-text"><desc>SW**</desc>
<path d="M1.405953 1.255450
L1.548810 1.303070
" />
<path d="M1.548810 1.303070
L1.786905 1.303070
" />
<path d="M1.786905 1.303070
L1.882143 1.255450
" />
<path d="M1.882143 1.255450
L1.929762 1.207831
" />
<path d="M1.929762 1.207831
L1.977381 1.112593
" />
<path d="M1.977381 1.112593
L1.977381 1.017355
" />
<path d="M1.977381 1.017355
L1.929762 0.922117
" />
<path d="M1.929762 0.922117
L1.882143 0.874498
" />
<path d="M1.882143 0.874498
L1.786905 0.826879
" />
<path d="M1.786905 0.826879
L1.596429 0.779260
" />
<path d="M1.596429 0.779260
L1.501191 0.731641
" />
<path d="M1.501191 0.731641
L1.453572 0.684022
" />
<path d="M1.453572 0.684022
L1.405953 0.588784
" />
<path d="M1.405953 0.588784
L1.405953 0.493546
" />
<path d="M1.405953 0.493546
L1.453572 0.398308
" />
<path d="M1.453572 0.398308
L1.501191 0.350689
" />
<path d="M1.501191 0.350689
L1.596429 0.303070
" />
<path d="M1.596429 0.303070
L1.834524 0.303070
" />
<path d="M1.834524 0.303070
L1.977381 0.350689
" />
<path d="M2.310715 0.303070
L2.548810 1.303070
" />
<path d="M2.548810 1.303070
L2.739286 0.588784
" />
<path d="M2.739286 0.588784
L2.929762 1.303070
" />
<path d="M2.929762 1.303070
L3.167857 0.303070
" />
<path d="M3.691666 0.303070
L3.691666 0.541165
" />
<path d="M3.453571 0.445927
L3.691666 0.541165
" />
<path d="M3.691666 0.541165
L3.929761 0.445927
" />
<path d="M3.548809 0.731641
L3.691666 0.541165
" />
<path d="M3.691666 0.541165
L3.834523 0.731641
" />
<path d="M4.453571 0.303070
L4.453571 0.541165
" />
<path d="M4.215476 0.445927
L4.453571 0.541165
" />
<path d="M4.453571 0.541165
L4.691666 0.445927
" />
<path d="M4.310714 0.731641
L4.453571 0.541165
" />
<path d="M4.453571 0.541165
L4.596428 0.731641
" />
</g><path d="M1.325000 1.898250
L4.725000 1.898250
" />
<path d="M1.325000 5.398250
L4.725000 5.398250
" />
</g>
<g style="fill:#F2EDA1; fill-opacity:1.000000; stroke:none;">
<circle cx="0.275000" cy="1.898250" r="0.275000" />
<path style="fill:none;
stroke:#AFAFAF; stroke-width:0.100000; stroke-opacity:1;
stroke-linecap:round; stroke-linejoin:round;fill:none"
d="M 0.925000,2.298250
1.175000,2.048250
5.125000,2.048250
5.125000,5.248250
0.925000,5.248250
Z" />
</g>
<g style="fill:none;
stroke:#AFAFAF; stroke-width:0.100000; stroke-opacity:1;
stroke-linecap:round; stroke-linejoin:round;">
<circle cx="3.025000" cy="3.648250" r="0.775000" />
</g>
<g style="fill:none;
stroke:#FF26E2; stroke-width:0.050000; stroke-opacity:1;
stroke-linecap:round; stroke-linejoin:round;">
<path d="M0.025000 1.648250
L6.025000 1.648250
" />
<path d="M6.025000 1.648250
L6.025000 5.648250
" />
<path d="M6.025000 5.648250
L0.025000 5.648250
" />
<path d="M0.025000 5.648250
L0.025000 1.648250
" />
</g>
</svg>
