<?xml version="1.0" standalone="no"?>
 <!DOCTYPE svg PUBLIC "-//W3C//DTD SVG 1.1//EN"
 "http://www.w3.org/Graphics/SVG/1.1/DTD/svg11.dtd">
<svg
  xmlns:svg="http://www.w3.org/2000/svg"
  xmlns="http://www.w3.org/2000/svg"
  xmlns:xlink="http://www.w3.org/1999/xlink"
  xmlns:inkscape="http://www.inkscape.org/namespaces/inkscape"
  version="1.1"
  width="21.7932mm" height="14.4526mm" viewBox="0.0000 0.0000 21.7932 14.4526">
<title>SVG Image created as PTS815SJM250SMTRLFS_unit1.svg date 2026-07-16T09:55:20 </title>
  <desc>Image generated by Eeschema-SVG </desc>
<g style="fill:#000000; fill-opacity:1.0000;stroke:#000000; stroke-opacity:1.0000;
stroke-linecap:round; stroke-linejoin:round;"
 transform="translate(0 0) scale(1 1)">
<path style="fill:none;
stroke:#840000; stroke-width:0.2540; stroke-opacity:1;
stroke-linecap:round; stroke-linejoin:round;fill:none"
d="M 5.8166,6.0336
5.8166,11.1136
" />
<path style="fill:none;
stroke:#840000; stroke-width:0.2540; stroke-opacity:1;
stroke-linecap:round; stroke-linejoin:round;fill:none"
d="M 5.8166,8.5736
9.3726,8.5736
" />
</g>
<g style="fill:none;
stroke:#840000; stroke-width:0.2540; stroke-opacity:1;
stroke-linecap:round; stroke-linejoin:round;">
<circle cx="9.6266" cy="8.5736" r="0.2540" />
<path style="fill:none;
stroke:#840000; stroke-width:0.3810; stroke-opacity:1;
stroke-linecap:round; stroke-linejoin:round;fill:none"
d="M 9.8806,8.3196
11.7856,7.0496
" />
</g>
<g style="fill:none;
stroke:#840000; stroke-width:0.2540; stroke-opacity:1;
stroke-linecap:round; stroke-linejoin:round;">
<circle cx="12.1666" cy="8.5736" r="0.2540" />
<path style="fill:none;
stroke:#840000; stroke-width:0.2540; stroke-opacity:1;
stroke-linecap:round; stroke-linejoin:round;fill:none"
d="M 12.4206,8.5736
15.9766,8.5736
" />
<path style="fill:none;
stroke:#840000; stroke-width:0.2540; stroke-opacity:1;
stroke-linecap:round; stroke-linejoin:round;fill:none"
d="M 15.9766,6.0336
15.9766,11.1136
" />
</g>
<g style="fill:none;
stroke:#840000; stroke-width:0.1524; stroke-opacity:1;
stroke-linecap:round; stroke-linejoin:round;">
<text x="5.8166" y="13.0186"
textLength="8.1789" font-size="1.0160" lengthAdjust="spacingAndGlyphs"
text-anchor="middle" opacity="0" stroke-opacity="0">1-2 COMMON</text>
<g class="stroked-text"><desc>1-2 COMMON</desc>
<path d="M2.4601 12.9821
L2.0247 12.9821
" />
<path d="M2.2424 12.9821
L2.2424 12.2201
" />
<path d="M2.2424 12.2201
L2.1698 12.3290
" />
<path d="M2.1698 12.3290
L2.0973 12.4016
" />
<path d="M2.0973 12.4016
L2.0247 12.4379
" />
<path d="M2.7867 12.6919
L3.3673 12.6919
" />
<path d="M3.6938 12.2927
L3.7301 12.2564
" />
<path d="M3.7301 12.2564
L3.8027 12.2201
" />
<path d="M3.8027 12.2201
L3.9841 12.2201
" />
<path d="M3.9841 12.2201
L4.0567 12.2564
" />
<path d="M4.0567 12.2564
L4.0929 12.2927
" />
<path d="M4.0929 12.2927
L4.1292 12.3653
" />
<path d="M4.1292 12.3653
L4.1292 12.4379
" />
<path d="M4.1292 12.4379
L4.0929 12.5467
" />
<path d="M4.0929 12.5467
L3.6575 12.9821
" />
<path d="M3.6575 12.9821
L4.1292 12.9821
" />
<path d="M5.4718 12.9096
L5.4355 12.9459
" />
<path d="M5.4355 12.9459
L5.3267 12.9821
" />
<path d="M5.3267 12.9821
L5.2541 12.9821
" />
<path d="M5.2541 12.9821
L5.1452 12.9459
" />
<path d="M5.1452 12.9459
L5.0727 12.8733
" />
<path d="M5.0727 12.8733
L5.0364 12.8007
" />
<path d="M5.0364 12.8007
L5.0001 12.6556
" />
<path d="M5.0001 12.6556
L5.0001 12.5467
" />
<path d="M5.0001 12.5467
L5.0364 12.4016
" />
<path d="M5.0364 12.4016
L5.0727 12.3290
" />
<path d="M5.0727 12.3290
L5.1452 12.2564
" />
<path d="M5.1452 12.2564
L5.2541 12.2201
" />
<path d="M5.2541 12.2201
L5.3267 12.2201
" />
<path d="M5.3267 12.2201
L5.4355 12.2564
" />
<path d="M5.4355 12.2564
L5.4718 12.2927
" />
<path d="M5.9435 12.2201
L6.0887 12.2201
" />
<path d="M6.0887 12.2201
L6.1612 12.2564
" />
<path d="M6.1612 12.2564
L6.2338 12.3290
" />
<path d="M6.2338 12.3290
L6.2701 12.4741
" />
<path d="M6.2701 12.4741
L6.2701 12.7281
" />
<path d="M6.2701 12.7281
L6.2338 12.8733
" />
<path d="M6.2338 12.8733
L6.1612 12.9459
" />
<path d="M6.1612 12.9459
L6.0887 12.9821
" />
<path d="M6.0887 12.9821
L5.9435 12.9821
" />
<path d="M5.9435 12.9821
L5.8710 12.9459
" />
<path d="M5.8710 12.9459
L5.7984 12.8733
" />
<path d="M5.7984 12.8733
L5.7621 12.7281
" />
<path d="M5.7621 12.7281
L5.7621 12.4741
" />
<path d="M5.7621 12.4741
L5.7984 12.3290
" />
<path d="M5.7984 12.3290
L5.8710 12.2564
" />
<path d="M5.8710 12.2564
L5.9435 12.2201
" />
<path d="M6.5967 12.9821
L6.5967 12.2201
" />
<path d="M6.5967 12.2201
L6.8507 12.7644
" />
<path d="M6.8507 12.7644
L7.1047 12.2201
" />
<path d="M7.1047 12.2201
L7.1047 12.9821
" />
<path d="M7.4676 12.9821
L7.4676 12.2201
" />
<path d="M7.4676 12.2201
L7.7216 12.7644
" />
<path d="M7.7216 12.7644
L7.9756 12.2201
" />
<path d="M7.9756 12.2201
L7.9756 12.9821
" />
<path d="M8.4836 12.2201
L8.6288 12.2201
" />
<path d="M8.6288 12.2201
L8.7013 12.2564
" />
<path d="M8.7013 12.2564
L8.7739 12.3290
" />
<path d="M8.7739 12.3290
L8.8102 12.4741
" />
<path d="M8.8102 12.4741
L8.8102 12.7281
" />
<path d="M8.8102 12.7281
L8.7739 12.8733
" />
<path d="M8.7739 12.8733
L8.7013 12.9459
" />
<path d="M8.7013 12.9459
L8.6288 12.9821
" />
<path d="M8.6288 12.9821
L8.4836 12.9821
" />
<path d="M8.4836 12.9821
L8.4111 12.9459
" />
<path d="M8.4111 12.9459
L8.3385 12.8733
" />
<path d="M8.3385 12.8733
L8.3022 12.7281
" />
<path d="M8.3022 12.7281
L8.3022 12.4741
" />
<path d="M8.3022 12.4741
L8.3385 12.3290
" />
<path d="M8.3385 12.3290
L8.4111 12.2564
" />
<path d="M8.4111 12.2564
L8.4836 12.2201
" />
<path d="M9.1368 12.9821
L9.1368 12.2201
" />
<path d="M9.1368 12.2201
L9.5722 12.9821
" />
<path d="M9.5722 12.9821
L9.5722 12.2201
" />
</g><text x="15.9766" y="13.0186"
textLength="8.1789" font-size="1.0160" lengthAdjust="spacingAndGlyphs"
text-anchor="middle" opacity="0" stroke-opacity="0">3-4 COMMON</text>
<g class="stroked-text"><desc>3-4 COMMON</desc>
<path d="M12.1484 12.2201
L12.6201 12.2201
" />
<path d="M12.6201 12.2201
L12.3661 12.5104
" />
<path d="M12.3661 12.5104
L12.4750 12.5104
" />
<path d="M12.4750 12.5104
L12.5476 12.5467
" />
<path d="M12.5476 12.5467
L12.5838 12.5830
" />
<path d="M12.5838 12.5830
L12.6201 12.6556
" />
<path d="M12.6201 12.6556
L12.6201 12.8370
" />
<path d="M12.6201 12.8370
L12.5838 12.9096
" />
<path d="M12.5838 12.9096
L12.5476 12.9459
" />
<path d="M12.5476 12.9459
L12.4750 12.9821
" />
<path d="M12.4750 12.9821
L12.2573 12.9821
" />
<path d="M12.2573 12.9821
L12.1847 12.9459
" />
<path d="M12.1847 12.9459
L12.1484 12.9096
" />
<path d="M12.9467 12.6919
L13.5273 12.6919
" />
<path d="M14.2167 12.4741
L14.2167 12.9821
" />
<path d="M14.0352 12.1839
L13.8538 12.7281
" />
<path d="M13.8538 12.7281
L14.3255 12.7281
" />
<path d="M15.6318 12.9096
L15.5955 12.9459
" />
<path d="M15.5955 12.9459
L15.4867 12.9821
" />
<path d="M15.4867 12.9821
L15.4141 12.9821
" />
<path d="M15.4141 12.9821
L15.3052 12.9459
" />
<path d="M15.3052 12.9459
L15.2327 12.8733
" />
<path d="M15.2327 12.8733
L15.1964 12.8007
" />
<path d="M15.1964 12.8007
L15.1601 12.6556
" />
<path d="M15.1601 12.6556
L15.1601 12.5467
" />
<path d="M15.1601 12.5467
L15.1964 12.4016
" />
<path d="M15.1964 12.4016
L15.2327 12.3290
" />
<path d="M15.2327 12.3290
L15.3052 12.2564
" />
<path d="M15.3052 12.2564
L15.4141 12.2201
" />
<path d="M15.4141 12.2201
L15.4867 12.2201
" />
<path d="M15.4867 12.2201
L15.5955 12.2564
" />
<path d="M15.5955 12.2564
L15.6318 12.2927
" />
<path d="M16.1035 12.2201
L16.2487 12.2201
" />
<path d="M16.2487 12.2201
L16.3212 12.2564
" />
<path d="M16.3212 12.2564
L16.3938 12.3290
" />
<path d="M16.3938 12.3290
L16.4301 12.4741
" />
<path d="M16.4301 12.4741
L16.4301 12.7281
" />
<path d="M16.4301 12.7281
L16.3938 12.8733
" />
<path d="M16.3938 12.8733
L16.3212 12.9459
" />
<path d="M16.3212 12.9459
L16.2487 12.9821
" />
<path d="M16.2487 12.9821
L16.1035 12.9821
" />
<path d="M16.1035 12.9821
L16.0310 12.9459
" />
<path d="M16.0310 12.9459
L15.9584 12.8733
" />
<path d="M15.9584 12.8733
L15.9221 12.7281
" />
<path d="M15.9221 12.7281
L15.9221 12.4741
" />
<path d="M15.9221 12.4741
L15.9584 12.3290
" />
<path d="M15.9584 12.3290
L16.0310 12.2564
" />
<path d="M16.0310 12.2564
L16.1035 12.2201
" />
<path d="M16.7567 12.9821
L16.7567 12.2201
" />
<path d="M16.7567 12.2201
L17.0107 12.7644
" />
<path d="M17.0107 12.7644
L17.2647 12.2201
" />
<path d="M17.2647 12.2201
L17.2647 12.9821
" />
<path d="M17.6276 12.9821
L17.6276 12.2201
" />
<path d="M17.6276 12.2201
L17.8816 12.7644
" />
<path d="M17.8816 12.7644
L18.1356 12.2201
" />
<path d="M18.1356 12.2201
L18.1356 12.9821
" />
<path d="M18.6436 12.2201
L18.7888 12.2201
" />
<path d="M18.7888 12.2201
L18.8613 12.2564
" />
<path d="M18.8613 12.2564
L18.9339 12.3290
" />
<path d="M18.9339 12.3290
L18.9702 12.4741
" />
<path d="M18.9702 12.4741
L18.9702 12.7281
" />
<path d="M18.9702 12.7281
L18.9339 12.8733
" />
<path d="M18.9339 12.8733
L18.8613 12.9459
" />
<path d="M18.8613 12.9459
L18.7888 12.9821
" />
<path d="M18.7888 12.9821
L18.6436 12.9821
" />
<path d="M18.6436 12.9821
L18.5711 12.9459
" />
<path d="M18.5711 12.9459
L18.4985 12.8733
" />
<path d="M18.4985 12.8733
L18.4622 12.7281
" />
<path d="M18.4622 12.7281
L18.4622 12.4741
" />
<path d="M18.4622 12.4741
L18.4985 12.3290
" />
<path d="M18.4985 12.3290
L18.5711 12.2564
" />
<path d="M18.5711 12.2564
L18.6436 12.2201
" />
<path d="M19.2968 12.9821
L19.2968 12.2201
" />
<path d="M19.2968 12.2201
L19.7322 12.9821
" />
<path d="M19.7322 12.9821
L19.7322 12.2201
" />
</g><path d="M5.8166 6.0336
L3.2766 6.0336
" />
</g>
<g style="fill:none;
stroke:#A90000; stroke-width:0.1524; stroke-opacity:1;
stroke-linecap:round; stroke-linejoin:round;">
<text x="4.5466" y="5.7796"
textLength="1.2216" font-size="1.3546" lengthAdjust="spacingAndGlyphs"
text-anchor="middle" opacity="0" stroke-opacity="0">1</text>
<g class="stroked-text"><desc>1</desc>
<path d="M4.8368 5.6472
L4.2563 5.6472
" />
<path d="M4.5466 5.6472
L4.5466 4.6312
" />
<path d="M4.5466 4.6312
L4.4498 4.7764
" />
<path d="M4.4498 4.7764
L4.3530 4.8731
" />
<path d="M4.3530 4.8731
L4.2563 4.9215
" />
</g></g>
<g style="fill:none;
stroke:#840000; stroke-width:0.1524; stroke-opacity:1;
stroke-linecap:round; stroke-linejoin:round;">
<path d="M5.8166 11.1136
L3.2766 11.1136
" />
</g>
<g style="fill:none;
stroke:#A90000; stroke-width:0.1524; stroke-opacity:1;
stroke-linecap:round; stroke-linejoin:round;">
<text x="4.5466" y="10.8596"
textLength="1.2216" font-size="1.3546" lengthAdjust="spacingAndGlyphs"
text-anchor="middle" opacity="0" stroke-opacity="0">2</text>
<g class="stroked-text"><desc>2</desc>
<path d="M4.2563 9.8080
L4.3047 9.7596
" />
<path d="M4.3047 9.7596
L4.4014 9.7112
" />
<path d="M4.4014 9.7112
L4.6433 9.7112
" />
<path d="M4.6433 9.7112
L4.7401 9.7596
" />
<path d="M4.7401 9.7596
L4.7885 9.8080
" />
<path d="M4.7885 9.8080
L4.8368 9.9048
" />
<path d="M4.8368 9.9048
L4.8368 10.0015
" />
<path d="M4.8368 10.0015
L4.7885 10.1467
" />
<path d="M4.7885 10.1467
L4.2079 10.7272
" />
<path d="M4.2079 10.7272
L4.8368 10.7272
" />
</g></g>
<g style="fill:none;
stroke:#840000; stroke-width:0.1524; stroke-opacity:1;
stroke-linecap:round; stroke-linejoin:round;">
<path d="M15.9766 6.0336
L18.5166 6.0336
" />
</g>
<g style="fill:none;
stroke:#A90000; stroke-width:0.1524; stroke-opacity:1;
stroke-linecap:round; stroke-linejoin:round;">
<text x="17.2466" y="5.7796"
textLength="1.2216" font-size="1.3546" lengthAdjust="spacingAndGlyphs"
text-anchor="middle" opacity="0" stroke-opacity="0">3</text>
<g class="stroked-text"><desc>3</desc>
<path d="M16.9079 4.6312
L17.5368 4.6312
" />
<path d="M17.5368 4.6312
L17.1982 5.0183
" />
<path d="M17.1982 5.0183
L17.3433 5.0183
" />
<path d="M17.3433 5.0183
L17.4401 5.0667
" />
<path d="M17.4401 5.0667
L17.4885 5.1150
" />
<path d="M17.4885 5.1150
L17.5368 5.2118
" />
<path d="M17.5368 5.2118
L17.5368 5.4537
" />
<path d="M17.5368 5.4537
L17.4885 5.5505
" />
<path d="M17.4885 5.5505
L17.4401 5.5989
" />
<path d="M17.4401 5.5989
L17.3433 5.6472
" />
<path d="M17.3433 5.6472
L17.0530 5.6472
" />
<path d="M17.0530 5.6472
L16.9563 5.5989
" />
<path d="M16.9563 5.5989
L16.9079 5.5505
" />
</g></g>
<g style="fill:none;
stroke:#840000; stroke-width:0.1524; stroke-opacity:1;
stroke-linecap:round; stroke-linejoin:round;">
<path d="M15.9766 11.1136
L18.5166 11.1136
" />
</g>
<g style="fill:none;
stroke:#A90000; stroke-width:0.1524; stroke-opacity:1;
stroke-linecap:round; stroke-linejoin:round;">
<text x="17.2466" y="10.8596"
textLength="1.2216" font-size="1.3546" lengthAdjust="spacingAndGlyphs"
text-anchor="middle" opacity="0" stroke-opacity="0">4</text>
<g class="stroked-text"><desc>4</desc>
<path d="M17.4401 10.0499
L17.4401 10.7272
" />
<path d="M17.1982 9.6629
L16.9563 10.3886
" />
<path d="M16.9563 10.3886
L17.5852 10.3886
" />
</g></g>
<g style="fill:none;
stroke:#006464; stroke-width:0.1524; stroke-opacity:1;
stroke-linecap:round; stroke-linejoin:round;">
<text x="10.8966" y="2.8586"
textLength="3.9527" font-size="1.6933" lengthAdjust="spacingAndGlyphs"
text-anchor="middle" opacity="0" stroke-opacity="0">SW?</text>
<g class="stroked-text"><desc>SW?</desc>
<path d="M9.2638 2.7427
L9.4452 2.8031
" />
<path d="M9.4452 2.8031
L9.7476 2.8031
" />
<path d="M9.7476 2.8031
L9.8685 2.7427
" />
<path d="M9.8685 2.7427
L9.9290 2.6822
" />
<path d="M9.9290 2.6822
L9.9895 2.5612
" />
<path d="M9.9895 2.5612
L9.9895 2.4403
" />
<path d="M9.9895 2.4403
L9.9290 2.3193
" />
<path d="M9.9290 2.3193
L9.8685 2.2588
" />
<path d="M9.8685 2.2588
L9.7476 2.1984
" />
<path d="M9.7476 2.1984
L9.5057 2.1379
" />
<path d="M9.5057 2.1379
L9.3847 2.0774
" />
<path d="M9.3847 2.0774
L9.3242 2.0169
" />
<path d="M9.3242 2.0169
L9.2638 1.8960
" />
<path d="M9.2638 1.8960
L9.2638 1.7750
" />
<path d="M9.2638 1.7750
L9.3242 1.6541
" />
<path d="M9.3242 1.6541
L9.3847 1.5936
" />
<path d="M9.3847 1.5936
L9.5057 1.5331
" />
<path d="M9.5057 1.5331
L9.8080 1.5331
" />
<path d="M9.8080 1.5331
L9.9895 1.5936
" />
<path d="M10.4128 1.5331
L10.7152 2.8031
" />
<path d="M10.7152 2.8031
L10.9571 1.8960
" />
<path d="M10.9571 1.8960
L11.1990 2.8031
" />
<path d="M11.1990 2.8031
L11.5014 1.5331
" />
<path d="M12.1666 2.6822
L12.2270 2.7427
" />
<path d="M12.2270 2.7427
L12.1666 2.8031
" />
<path d="M12.1666 2.8031
L12.1061 2.7427
" />
<path d="M12.1061 2.7427
L12.1666 2.6822
" />
<path d="M12.1666 2.6822
L12.1666 2.8031
" />
<path d="M11.9247 1.5936
L12.0456 1.5331
" />
<path d="M12.0456 1.5331
L12.3480 1.5331
" />
<path d="M12.3480 1.5331
L12.4689 1.5936
" />
<path d="M12.4689 1.5936
L12.5294 1.7146
" />
<path d="M12.5294 1.7146
L12.5294 1.8355
" />
<path d="M12.5294 1.8355
L12.4689 1.9565
" />
<path d="M12.4689 1.9565
L12.4085 2.0169
" />
<path d="M12.4085 2.0169
L12.2875 2.0774
" />
<path d="M12.2875 2.0774
L12.2270 2.1379
" />
<path d="M12.2270 2.1379
L12.1666 2.2588
" />
<path d="M12.1666 2.2588
L12.1666 2.3193
" />
</g><text x="10.8966" y="4.6366"
textLength="13.8394" font-size="1.0160" lengthAdjust="spacingAndGlyphs"
text-anchor="middle" opacity="0" stroke-opacity="0">PTS815SJM250SMTRLFS</text>
<g class="stroked-text"><desc>PTS815SJM250SMTRLFS</desc>
<path d="M4.3107 4.6001
L4.3107 3.8381
" />
<path d="M4.3107 3.8381
L4.6010 3.8381
" />
<path d="M4.6010 3.8381
L4.6735 3.8744
" />
<path d="M4.6735 3.8744
L4.7098 3.9107
" />
<path d="M4.7098 3.9107
L4.7461 3.9833
" />
<path d="M4.7461 3.9833
L4.7461 4.0921
" />
<path d="M4.7461 4.0921
L4.7098 4.1647
" />
<path d="M4.7098 4.1647
L4.6735 4.2010
" />
<path d="M4.6735 4.2010
L4.6010 4.2373
" />
<path d="M4.6010 4.2373
L4.3107 4.2373
" />
<path d="M4.9638 3.8381
L5.3993 3.8381
" />
<path d="M5.1815 4.6001
L5.1815 3.8381
" />
<path d="M5.6170 4.5639
L5.7259 4.6001
" />
<path d="M5.7259 4.6001
L5.9073 4.6001
" />
<path d="M5.9073 4.6001
L5.9799 4.5639
" />
<path d="M5.9799 4.5639
L6.0161 4.5276
" />
<path d="M6.0161 4.5276
L6.0524 4.4550
" />
<path d="M6.0524 4.4550
L6.0524 4.3824
" />
<path d="M6.0524 4.3824
L6.0161 4.3099
" />
<path d="M6.0161 4.3099
L5.9799 4.2736
" />
<path d="M5.9799 4.2736
L5.9073 4.2373
" />
<path d="M5.9073 4.2373
L5.7621 4.2010
" />
<path d="M5.7621 4.2010
L5.6896 4.1647
" />
<path d="M5.6896 4.1647
L5.6533 4.1284
" />
<path d="M5.6533 4.1284
L5.6170 4.0559
" />
<path d="M5.6170 4.0559
L5.6170 3.9833
" />
<path d="M5.6170 3.9833
L5.6533 3.9107
" />
<path d="M5.6533 3.9107
L5.6896 3.8744
" />
<path d="M5.6896 3.8744
L5.7621 3.8381
" />
<path d="M5.7621 3.8381
L5.9436 3.8381
" />
<path d="M5.9436 3.8381
L6.0524 3.8744
" />
<path d="M6.4878 4.1647
L6.4153 4.1284
" />
<path d="M6.4153 4.1284
L6.3790 4.0921
" />
<path d="M6.3790 4.0921
L6.3427 4.0196
" />
<path d="M6.3427 4.0196
L6.3427 3.9833
" />
<path d="M6.3427 3.9833
L6.3790 3.9107
" />
<path d="M6.3790 3.9107
L6.4153 3.8744
" />
<path d="M6.4153 3.8744
L6.4878 3.8381
" />
<path d="M6.4878 3.8381
L6.6330 3.8381
" />
<path d="M6.6330 3.8381
L6.7056 3.8744
" />
<path d="M6.7056 3.8744
L6.7418 3.9107
" />
<path d="M6.7418 3.9107
L6.7781 3.9833
" />
<path d="M6.7781 3.9833
L6.7781 4.0196
" />
<path d="M6.7781 4.0196
L6.7418 4.0921
" />
<path d="M6.7418 4.0921
L6.7056 4.1284
" />
<path d="M6.7056 4.1284
L6.6330 4.1647
" />
<path d="M6.6330 4.1647
L6.4878 4.1647
" />
<path d="M6.4878 4.1647
L6.4153 4.2010
" />
<path d="M6.4153 4.2010
L6.3790 4.2373
" />
<path d="M6.3790 4.2373
L6.3427 4.3099
" />
<path d="M6.3427 4.3099
L6.3427 4.4550
" />
<path d="M6.3427 4.4550
L6.3790 4.5276
" />
<path d="M6.3790 4.5276
L6.4153 4.5639
" />
<path d="M6.4153 4.5639
L6.4878 4.6001
" />
<path d="M6.4878 4.6001
L6.6330 4.6001
" />
<path d="M6.6330 4.6001
L6.7056 4.5639
" />
<path d="M6.7056 4.5639
L6.7418 4.5276
" />
<path d="M6.7418 4.5276
L6.7781 4.4550
" />
<path d="M6.7781 4.4550
L6.7781 4.3099
" />
<path d="M6.7781 4.3099
L6.7418 4.2373
" />
<path d="M6.7418 4.2373
L6.7056 4.2010
" />
<path d="M6.7056 4.2010
L6.6330 4.1647
" />
<path d="M7.5038 4.6001
L7.0684 4.6001
" />
<path d="M7.2861 4.6001
L7.2861 3.8381
" />
<path d="M7.2861 3.8381
L7.2135 3.9470
" />
<path d="M7.2135 3.9470
L7.1410 4.0196
" />
<path d="M7.1410 4.0196
L7.0684 4.0559
" />
<path d="M8.1932 3.8381
L7.8304 3.8381
" />
<path d="M7.8304 3.8381
L7.7941 4.2010
" />
<path d="M7.7941 4.2010
L7.8304 4.1647
" />
<path d="M7.8304 4.1647
L7.9030 4.1284
" />
<path d="M7.9030 4.1284
L8.0844 4.1284
" />
<path d="M8.0844 4.1284
L8.1570 4.1647
" />
<path d="M8.1570 4.1647
L8.1932 4.2010
" />
<path d="M8.1932 4.2010
L8.2295 4.2736
" />
<path d="M8.2295 4.2736
L8.2295 4.4550
" />
<path d="M8.2295 4.4550
L8.1932 4.5276
" />
<path d="M8.1932 4.5276
L8.1570 4.5639
" />
<path d="M8.1570 4.5639
L8.0844 4.6001
" />
<path d="M8.0844 4.6001
L7.9030 4.6001
" />
<path d="M7.9030 4.6001
L7.8304 4.5639
" />
<path d="M7.8304 4.5639
L7.7941 4.5276
" />
<path d="M8.5198 4.5639
L8.6287 4.6001
" />
<path d="M8.6287 4.6001
L8.8101 4.6001
" />
<path d="M8.8101 4.6001
L8.8827 4.5639
" />
<path d="M8.8827 4.5639
L8.9189 4.5276
" />
<path d="M8.9189 4.5276
L8.9552 4.4550
" />
<path d="M8.9552 4.4550
L8.9552 4.3824
" />
<path d="M8.9552 4.3824
L8.9189 4.3099
" />
<path d="M8.9189 4.3099
L8.8827 4.2736
" />
<path d="M8.8827 4.2736
L8.8101 4.2373
" />
<path d="M8.8101 4.2373
L8.6649 4.2010
" />
<path d="M8.6649 4.2010
L8.5924 4.1647
" />
<path d="M8.5924 4.1647
L8.5561 4.1284
" />
<path d="M8.5561 4.1284
L8.5198 4.0559
" />
<path d="M8.5198 4.0559
L8.5198 3.9833
" />
<path d="M8.5198 3.9833
L8.5561 3.9107
" />
<path d="M8.5561 3.9107
L8.5924 3.8744
" />
<path d="M8.5924 3.8744
L8.6649 3.8381
" />
<path d="M8.6649 3.8381
L8.8464 3.8381
" />
<path d="M8.8464 3.8381
L8.9552 3.8744
" />
<path d="M9.4995 3.8381
L9.4995 4.3824
" />
<path d="M9.4995 4.3824
L9.4632 4.4913
" />
<path d="M9.4632 4.4913
L9.3906 4.5639
" />
<path d="M9.3906 4.5639
L9.2818 4.6001
" />
<path d="M9.2818 4.6001
L9.2092 4.6001
" />
<path d="M9.8624 4.6001
L9.8624 3.8381
" />
<path d="M9.8624 3.8381
L10.1164 4.3824
" />
<path d="M10.1164 4.3824
L10.3704 3.8381
" />
<path d="M10.3704 3.8381
L10.3704 4.6001
" />
<path d="M10.6970 3.9107
L10.7333 3.8744
" />
<path d="M10.7333 3.8744
L10.8059 3.8381
" />
<path d="M10.8059 3.8381
L10.9873 3.8381
" />
<path d="M10.9873 3.8381
L11.0599 3.8744
" />
<path d="M11.0599 3.8744
L11.0961 3.9107
" />
<path d="M11.0961 3.9107
L11.1324 3.9833
" />
<path d="M11.1324 3.9833
L11.1324 4.0559
" />
<path d="M11.1324 4.0559
L11.0961 4.1647
" />
<path d="M11.0961 4.1647
L10.6607 4.6001
" />
<path d="M10.6607 4.6001
L11.1324 4.6001
" />
<path d="M11.8218 3.8381
L11.4590 3.8381
" />
<path d="M11.4590 3.8381
L11.4227 4.2010
" />
<path d="M11.4227 4.2010
L11.4590 4.1647
" />
<path d="M11.4590 4.1647
L11.5316 4.1284
" />
<path d="M11.5316 4.1284
L11.7130 4.1284
" />
<path d="M11.7130 4.1284
L11.7856 4.1647
" />
<path d="M11.7856 4.1647
L11.8218 4.2010
" />
<path d="M11.8218 4.2010
L11.8581 4.2736
" />
<path d="M11.8581 4.2736
L11.8581 4.4550
" />
<path d="M11.8581 4.4550
L11.8218 4.5276
" />
<path d="M11.8218 4.5276
L11.7856 4.5639
" />
<path d="M11.7856 4.5639
L11.7130 4.6001
" />
<path d="M11.7130 4.6001
L11.5316 4.6001
" />
<path d="M11.5316 4.6001
L11.4590 4.5639
" />
<path d="M11.4590 4.5639
L11.4227 4.5276
" />
<path d="M12.3298 3.8381
L12.4024 3.8381
" />
<path d="M12.4024 3.8381
L12.4750 3.8744
" />
<path d="M12.4750 3.8744
L12.5113 3.9107
" />
<path d="M12.5113 3.9107
L12.5475 3.9833
" />
<path d="M12.5475 3.9833
L12.5838 4.1284
" />
<path d="M12.5838 4.1284
L12.5838 4.3099
" />
<path d="M12.5838 4.3099
L12.5475 4.4550
" />
<path d="M12.5475 4.4550
L12.5113 4.5276
" />
<path d="M12.5113 4.5276
L12.4750 4.5639
" />
<path d="M12.4750 4.5639
L12.4024 4.6001
" />
<path d="M12.4024 4.6001
L12.3298 4.6001
" />
<path d="M12.3298 4.6001
L12.2573 4.5639
" />
<path d="M12.2573 4.5639
L12.2210 4.5276
" />
<path d="M12.2210 4.5276
L12.1847 4.4550
" />
<path d="M12.1847 4.4550
L12.1484 4.3099
" />
<path d="M12.1484 4.3099
L12.1484 4.1284
" />
<path d="M12.1484 4.1284
L12.1847 3.9833
" />
<path d="M12.1847 3.9833
L12.2210 3.9107
" />
<path d="M12.2210 3.9107
L12.2573 3.8744
" />
<path d="M12.2573 3.8744
L12.3298 3.8381
" />
<path d="M12.8741 4.5639
L12.9830 4.6001
" />
<path d="M12.9830 4.6001
L13.1644 4.6001
" />
<path d="M13.1644 4.6001
L13.2370 4.5639
" />
<path d="M13.2370 4.5639
L13.2732 4.5276
" />
<path d="M13.2732 4.5276
L13.3095 4.4550
" />
<path d="M13.3095 4.4550
L13.3095 4.3824
" />
<path d="M13.3095 4.3824
L13.2732 4.3099
" />
<path d="M13.2732 4.3099
L13.2370 4.2736
" />
<path d="M13.2370 4.2736
L13.1644 4.2373
" />
<path d="M13.1644 4.2373
L13.0192 4.2010
" />
<path d="M13.0192 4.2010
L12.9467 4.1647
" />
<path d="M12.9467 4.1647
L12.9104 4.1284
" />
<path d="M12.9104 4.1284
L12.8741 4.0559
" />
<path d="M12.8741 4.0559
L12.8741 3.9833
" />
<path d="M12.8741 3.9833
L12.9104 3.9107
" />
<path d="M12.9104 3.9107
L12.9467 3.8744
" />
<path d="M12.9467 3.8744
L13.0192 3.8381
" />
<path d="M13.0192 3.8381
L13.2007 3.8381
" />
<path d="M13.2007 3.8381
L13.3095 3.8744
" />
<path d="M13.6361 4.6001
L13.6361 3.8381
" />
<path d="M13.6361 3.8381
L13.8901 4.3824
" />
<path d="M13.8901 4.3824
L14.1441 3.8381
" />
<path d="M14.1441 3.8381
L14.1441 4.6001
" />
<path d="M14.3981 3.8381
L14.8336 3.8381
" />
<path d="M14.6158 4.6001
L14.6158 3.8381
" />
<path d="M15.5230 4.6001
L15.2690 4.2373
" />
<path d="M15.0876 4.6001
L15.0876 3.8381
" />
<path d="M15.0876 3.8381
L15.3779 3.8381
" />
<path d="M15.3779 3.8381
L15.4504 3.8744
" />
<path d="M15.4504 3.8744
L15.4867 3.9107
" />
<path d="M15.4867 3.9107
L15.5230 3.9833
" />
<path d="M15.5230 3.9833
L15.5230 4.0921
" />
<path d="M15.5230 4.0921
L15.4867 4.1647
" />
<path d="M15.4867 4.1647
L15.4504 4.2010
" />
<path d="M15.4504 4.2010
L15.3779 4.2373
" />
<path d="M15.3779 4.2373
L15.0876 4.2373
" />
<path d="M16.2124 4.6001
L15.8496 4.6001
" />
<path d="M15.8496 4.6001
L15.8496 3.8381
" />
<path d="M16.7205 4.2010
L16.4665 4.2010
" />
<path d="M16.4665 4.6001
L16.4665 3.8381
" />
<path d="M16.4665 3.8381
L16.8293 3.8381
" />
<path d="M17.0833 4.5639
L17.1922 4.6001
" />
<path d="M17.1922 4.6001
L17.3736 4.6001
" />
<path d="M17.3736 4.6001
L17.4462 4.5639
" />
<path d="M17.4462 4.5639
L17.4824 4.5276
" />
<path d="M17.4824 4.5276
L17.5187 4.4550
" />
<path d="M17.5187 4.4550
L17.5187 4.3824
" />
<path d="M17.5187 4.3824
L17.4824 4.3099
" />
<path d="M17.4824 4.3099
L17.4462 4.2736
" />
<path d="M17.4462 4.2736
L17.3736 4.2373
" />
<path d="M17.3736 4.2373
L17.2284 4.2010
" />
<path d="M17.2284 4.2010
L17.1559 4.1647
" />
<path d="M17.1559 4.1647
L17.1196 4.1284
" />
<path d="M17.1196 4.1284
L17.0833 4.0559
" />
<path d="M17.0833 4.0559
L17.0833 3.9833
" />
<path d="M17.0833 3.9833
L17.1196 3.9107
" />
<path d="M17.1196 3.9107
L17.1559 3.8744
" />
<path d="M17.1559 3.8744
L17.2284 3.8381
" />
<path d="M17.2284 3.8381
L17.4099 3.8381
" />
<path d="M17.4099 3.8381
L17.5187 3.8744
" />
</g></g>
</svg>
